<?xml version="1.0" standalone="no"?><!DOCTYPE svg PUBLIC "-//W3C//DTD SVG 1.1//EN" "http://www.w3.org/Graphics/SVG/1.1/DTD/svg11.dtd"><svg t="1615347481570" class="icon" viewBox="0 0 1024 1024" version="1.1" xmlns="http://www.w3.org/2000/svg" p-id="1191" xmlns:xlink="http://www.w3.org/1999/xlink" width="64" height="64"><defs><style type="text/css"></style></defs><path d="M817.12106667 252.8H56.18666667C46.2368 252.8 38.4 260.70506667 38.4 270.65493333v605.68C38.4 886.288 46.2368 894.93333333 56.18666667 894.93333333h760.9344c9.952 0 18.07893333-8.64533333 18.07893333-18.5984V270.65493333c0-9.94986667-8.12693333-17.85493333-18.07893333-17.85493333zM762.66666667 801.29706667c0 9.95093333-8.04586667 17.90293333-17.9968 17.90293333H131.2256c-9.94986667 0-18.15893333-7.952-18.15893333-17.90293333V343.10826667c0-9.952 8.21013333-17.77493333 18.15893333-17.77493334h613.44426667c9.95093333 0 17.9968 7.82293333 17.9968 17.77493334v458.1888z" p-id="1192" fill="#f4ea2a"></path><path d="M964.24746667 113.06666667H202.63466667c-9.94986667 0-17.03466667 6.63466667-17.03466667 16.58346666V216.53333333h74.66666667v-14.0576c0-9.94666667 8.04693333-16.87573333 17.99786666-16.87573333h613.1584c9.94453333 0 19.5104 6.92906667 19.5104 16.87573333v432.02773334c0 9.94986667-9.56586667 19.36213333-19.5104 19.36213333H868.26666667v74.66666667h95.9808c9.952 0 18.15253333-8.4512 18.15253333-18.4V129.65013333c0-9.9488-8.19946667-16.58346667-18.15253333-16.58346666z" p-id="1193" fill="#f4ea2a"></path></svg>