<?xml version="1.0" standalone="no"?><!DOCTYPE svg PUBLIC "-//W3C//DTD SVG 1.1//EN" "http://www.w3.org/Graphics/SVG/1.1/DTD/svg11.dtd"><svg t="1615346375539" class="icon" viewBox="0 0 1024 1024" version="1.1" xmlns="http://www.w3.org/2000/svg" p-id="814" width="64" height="64" xmlns:xlink="http://www.w3.org/1999/xlink"><defs><style type="text/css"></style></defs><path d="M830.135395 77.043416H207.699478c-36.246823 0-65.630008 34.914735-65.630008 77.98498V894.643571c0 43.069538 29.383538 77.984274 65.630008 77.984274h622.435917c36.24647 0 65.630008-34.914735 65.630008-77.984274V155.028043c0-43.070244-29.383538-77.984627-65.630008-77.984627z m-2.803875 755.815421c0 40.602919-32.913782 73.514231-73.51282 73.514231H281.283206c-40.601508 0-73.514231-32.913782-73.514231-73.514231V206.314826c0-40.600802 32.912723-73.513525 73.514231-73.513525h472.535847c40.600449 0 73.51282 32.912371 73.51282 73.513525v626.544011z" fill="#1296db" p-id="815"></path><path d="M782.61063 345.875696v-10.321563c0-17.369702-14.081464-31.452225-31.451166-31.452224H389.692417c-17.36935 0-31.451872 14.081464-31.451872 31.451872v10.321915c0 17.370761 14.081464 31.451167 31.451872 31.451166h361.467047c17.369702-0.000353 31.451167-14.080406 31.451166-31.451166zM784.829247 539.769228v-10.32262c0-17.370055-14.081111-31.451519-31.451166-31.451519h-361.466342c-17.369702 0-31.452225 14.080406-31.452224 31.451519v10.32262c0 17.36935 14.081464 31.451167 31.452224 31.451167h361.466342c17.370055-0.001411 31.451167-14.081817 31.451166-31.451167zM784.829247 731.284336v-10.322973c0-17.369702-14.081111-31.452225-31.451166-31.452225h-361.466342c-17.369702 0-31.452225 14.081464-31.452224 31.452225v10.322973c0 17.369702 14.081464 31.450814 31.452224 31.450814h361.466342c17.370055-0.002117 31.451167-14.081111 31.451166-31.450814z" fill="#1296db" p-id="816"></path><path d="M289.98305 341.260661m-36.625 0a36.625 36.625 0 1 0 73.25 0 36.625 36.625 0 1 0-73.25 0Z" fill="#1296db" p-id="817"></path><path d="M289.98305 534.607389m-36.625 0a36.625 36.625 0 1 0 73.25 0 36.625 36.625 0 1 0-73.25 0Z" fill="#1296db" p-id="818"></path><path d="M289.98305 726.121791m-36.625 0a36.625 36.625 0 1 0 73.25 0 36.625 36.625 0 1 0-73.25 0Z" fill="#1296db" p-id="819"></path></svg>