<?xml version="1.0" standalone="no"?><!DOCTYPE svg PUBLIC "-//W3C//DTD SVG 1.1//EN" "http://www.w3.org/Graphics/SVG/1.1/DTD/svg11.dtd"><svg t="1615347269566" class="icon" viewBox="0 0 1024 1024" version="1.1" xmlns="http://www.w3.org/2000/svg" p-id="1166" xmlns:xlink="http://www.w3.org/1999/xlink" width="64" height="64"><defs><style type="text/css"></style></defs><path d="M796.116714 196.144253H223.027304c-33.373451 0-60.426894 29.372249-60.426893 65.605314v622.2052c0 36.233065 27.054149 65.604961 60.426893 65.604961h573.08941c33.373451 0 60.426894-29.371896 60.426894-65.604961V261.749214C856.543608 225.516149 829.489812 196.144253 796.116714 196.144253z m-2.581272 635.834404c0 34.156969-30.304287 61.844001-67.68529 61.844001H290.777505c-37.382766 0-67.685995-27.688442-67.685995-61.844001V304.894599c0-34.155558 30.303229-61.843648 67.685995-61.843647h435.073353c37.381708 0 67.684231 27.687737 67.684231 61.843647v527.084058h0.000353z" fill="#1afa29" p-id="1167"></path><path d="M755.547309 418.721766v-11.909413c0-20.041639-16.24787-36.290567-36.289156-36.290568H302.183152c-20.041286 0-36.290215 16.24787-36.290214 36.290215v11.909766c0 20.04305 16.24787 36.289862 36.290214 36.289862h417.075001c20.041286-0.000353 36.289156-16.246459 36.289156-36.289862zM758.107415 583.177433v-11.910824c0-20.042344-16.247517-36.289862-36.289509-36.289862H304.743611c-20.041639 0-36.29092 16.246459-36.29092 36.289862v11.910824c0 20.041639 16.24787 36.289509 36.29092 36.289509H721.817906c20.041992-0.001411 36.289509-16.248223 36.289509-36.289509zM758.107415 743.477382v-11.91153c0-20.041992-16.247517-36.290567-36.289509-36.290567H304.743611c-20.041639 0-36.29092 16.24787-36.29092 36.290567v11.91153c0 20.041639 16.24787 36.288803 36.29092 36.288804H721.817906c20.041992-0.002469 36.289509-16.247165 36.289509-36.288804z" fill="#1afa29" p-id="1168"></path><path d="M402.784693 206.728281V162.805727c0-6.060011 4.913837-10.9742 10.9742-10.9742h191.626585c6.059658 0 10.973495 4.91419 10.973495 10.9742V208.84424h56.135004V106.670018c0-6.061422-4.912779-10.975259-10.974201-10.975259h-303.895886c-6.060716 0-10.9742 4.912779-10.974201 10.975259v98.528268c18.722957 0.135819 37.452263 0.811388 56.135004 1.529995z" fill="#1afa29" p-id="1169"></path></svg>